# xmcd CD database file
#
# Track frame offsets:
#	187
#	21300
#	41600
#	60325
#	80175
#	101700
#	122100
#	142325
#
# Disc length: 2147 seconds
#
# Revision: 2
# Processed by: cddbd v1.5.1PL0 Copyright (c) Steve Scherf et al.
# Submitted via: CDex 1.51
#
DISCID=73086108
DTITLE=中森明菜 - CD'87
DYEAR=1987
DGENRE=JPop
TTITLE0=LA BOHEME
TTITLE1=最後のカルメン
TTITLE2=TANGO NOIR
TTITLE3=DESIRE -情熱-
TTITLE4=危ない MON AMOUR
TTITLE5=MILONGUITA
TTITLE6=ジプシー・クイーン
TTITLE7=Fin
EXTD=YEAR: 1987
EXTT0=
EXTT1=
EXTT2=
EXTT3=
EXTT4=
EXTT5=
EXTT6=
EXTT7=
PLAYORDER=
